<svg width="33" height="32" viewBox="0 0 33 32" fill="none" xmlns="http://www.w3.org/2000/svg">
<path fill-rule="evenodd" clip-rule="evenodd" d="M6.29309 12.4502C6.84538 12.4502 7.29309 12.8979 7.29309 13.4502V26.0002H25.2931V13.4502C25.2931 12.8979 25.7408 12.4502 26.2931 12.4502C26.8454 12.4502 27.2931 12.8979 27.2931 13.4502V26.0002C27.2931 26.5306 27.0824 27.0393 26.7073 27.4144C26.3322 27.7895 25.8235 28.0002 25.2931 28.0002H7.29309C6.76266 28.0002 6.25395 27.7895 5.87888 27.4144C5.5038 27.0393 5.29309 26.5306 5.29309 26.0002V13.4502C5.29309 12.8979 5.74081 12.4502 6.29309 12.4502Z" fill="#A259FF"/>
<path fill-rule="evenodd" clip-rule="evenodd" d="M3.29309 5C3.29309 4.44772 3.74081 4 4.29309 4H28.2931C28.8454 4 29.2931 4.44772 29.2931 5C29.2931 5.55228 28.8454 6 28.2931 6H4.29309C3.74081 6 3.29309 5.55228 3.29309 5Z" fill="#A259FF"/>
<path fill-rule="evenodd" clip-rule="evenodd" d="M4.29309 7C4.84538 7 5.29309 7.44772 5.29309 8V10C5.29309 10.7956 5.60916 11.5587 6.17177 12.1213C6.73438 12.6839 7.49744 13 8.29309 13C9.08874 13 9.8518 12.6839 10.4144 12.1213C10.977 11.5587 11.2931 10.7956 11.2931 10V8C11.2931 7.44772 11.7408 7 12.2931 7C12.8454 7 13.2931 7.44772 13.2931 8V10C13.2931 11.3261 12.7663 12.5979 11.8286 13.5355C10.8909 14.4732 9.61917 15 8.29309 15C6.96701 15 5.69524 14.4732 4.75756 13.5355C3.81987 12.5979 3.29309 11.3261 3.29309 10V8C3.29309 7.44772 3.74081 7 4.29309 7Z" fill="#A259FF"/>
<path fill-rule="evenodd" clip-rule="evenodd" d="M12.2931 7C12.8454 7 13.2931 7.44772 13.2931 8V10C13.2931 10.7956 13.6092 11.5587 14.1718 12.1213C14.7344 12.6839 15.4974 13 16.2931 13C17.0887 13 17.8518 12.6839 18.4144 12.1213C18.977 11.5587 19.2931 10.7956 19.2931 10V8C19.2931 7.44772 19.7408 7 20.2931 7C20.8454 7 21.2931 7.44772 21.2931 8V10C21.2931 11.3261 20.7663 12.5979 19.8286 13.5355C18.8909 14.4732 17.6192 15 16.2931 15C14.967 15 13.6952 14.4732 12.7576 13.5355C11.8199 12.5979 11.2931 11.3261 11.2931 10V8C11.2931 7.44772 11.7408 7 12.2931 7Z" fill="#A259FF"/>
<path fill-rule="evenodd" clip-rule="evenodd" d="M20.2931 7C20.8454 7 21.2931 7.44772 21.2931 8V10C21.2931 10.7956 21.6092 11.5587 22.1718 12.1213C22.7344 12.6839 23.4974 13 24.2931 13C25.0887 13 25.8518 12.6839 26.4144 12.1213C26.977 11.5587 27.2931 10.7956 27.2931 10V8C27.2931 7.44772 27.7408 7 28.2931 7C28.8454 7 29.2931 7.44772 29.2931 8V10C29.2931 11.3261 28.7663 12.5979 27.8286 13.5355C26.8909 14.4732 25.6192 15 24.2931 15C22.967 15 21.6952 14.4732 20.7576 13.5355C19.8199 12.5979 19.2931 11.3261 19.2931 10V8C19.2931 7.44772 19.7408 7 20.2931 7Z" fill="#A259FF"/>
</svg>
