<svg width="159" height="32" viewBox="0 0 159 32" fill="none" xmlns="http://www.w3.org/2000/svg">
<path d="M12.2931 19.5C13.1215 19.5 13.7931 18.8284 13.7931 18C13.7931 17.1716 13.1215 16.5 12.2931 16.5C11.4647 16.5 10.7931 17.1716 10.7931 18C10.7931 18.8284 11.4647 19.5 12.2931 19.5Z" fill="#858584"/>
<path d="M20.2931 19.5C21.1215 19.5 21.7931 18.8284 21.7931 18C21.7931 17.1716 21.1215 16.5 20.2931 16.5C19.4647 16.5 18.7931 17.1716 18.7931 18C18.7931 18.8284 19.4647 19.5 20.2931 19.5Z" fill="#858584"/>
<path fill-rule="evenodd" clip-rule="evenodd" d="M16.2858 9.99959C14.118 9.98356 11.9609 10.3055 9.89223 10.9539C9.36522 11.119 8.8041 10.8257 8.63893 10.2987C8.47376 9.77168 8.76709 9.21056 9.2941 9.04539C11.5587 8.33563 13.92 7.98281 16.2932 7.99959C18.6663 7.98281 21.0276 8.33563 23.2922 9.04539C23.8192 9.21056 24.1126 9.77168 23.9474 10.2987C23.7822 10.8257 23.2211 11.119 22.6941 10.9539C20.6254 10.3055 18.4684 9.98356 16.3006 9.99959H16.2858Z" fill="#858584"/>
<path fill-rule="evenodd" clip-rule="evenodd" d="M8.63893 21.7009C8.8041 21.1739 9.36522 20.8806 9.89223 21.0458C11.9609 21.6941 14.118 22.016 16.2858 22H16.3006C18.4684 22.016 20.6254 21.6941 22.6941 21.0458C23.2211 20.8806 23.7822 21.1739 23.9474 21.7009C24.1126 22.2279 23.8192 22.7891 23.2922 22.9542C21.0276 23.664 18.6663 24.0168 16.2932 24C13.92 24.0168 11.5587 23.664 9.2941 22.9542C8.76709 22.7891 8.47376 22.2279 8.63893 21.7009Z" fill="#858584"/>
<path fill-rule="evenodd" clip-rule="evenodd" d="M20.513 4.81121C20.9435 4.56852 21.4482 4.49267 21.9309 4.59812C23.2485 4.88366 24.5384 5.28424 25.7859 5.79524C26.0667 5.90352 26.319 6.07496 26.523 6.29638C26.7293 6.52018 26.8806 6.78885 26.9651 7.08115L31.2009 21.2255C31.3114 21.594 31.314 21.9865 31.2083 22.3563C31.1026 22.7262 30.8931 23.0581 30.6047 23.3126L30.5995 23.3171C28.532 25.1161 25.7307 26.4777 22.5487 27.2577C22.1067 27.3703 21.6393 27.3265 21.2258 27.1336C20.814 26.9414 20.4813 26.6132 20.2834 26.2044L18.7751 23.2129C18.5265 22.7197 18.7247 22.1184 19.2179 21.8698C19.711 21.6211 20.3124 21.8194 20.561 22.3125L22.0735 25.3125L22.0746 25.3147C25.0125 24.5943 27.5066 23.3571 29.2866 21.8083L29.9431 22.5627L29.2815 21.8128C29.2833 21.8113 29.2846 21.8092 29.2852 21.8069C29.2859 21.8046 29.2859 21.8022 29.2852 21.7999L25.0491 7.65465C25.0456 7.65325 25.042 7.65182 25.0385 7.65037C23.8956 7.18149 22.7136 6.81412 21.5063 6.55253L21.5041 6.55205C21.5011 6.55139 21.498 6.55186 21.4953 6.55337C21.4929 6.55473 21.491 6.55684 21.49 6.55937L20.505 9.53905C20.3317 10.0634 19.7661 10.348 19.2417 10.1747C18.7173 10.0013 18.4328 9.43574 18.6061 8.91136L19.5965 5.91516C19.756 5.44707 20.0823 5.0541 20.513 4.81121Z" fill="#858584"/>
<path fill-rule="evenodd" clip-rule="evenodd" d="M11.0908 6.55337C11.0881 6.55186 11.085 6.55139 11.082 6.55205L11.0798 6.55252C9.87249 6.81412 8.69052 7.18148 7.54762 7.65037C7.54409 7.65182 7.54055 7.65324 7.53701 7.65465L3.30103 21.7996C3.30034 21.8019 3.30024 21.8046 3.3009 21.8069C3.30149 21.809 3.3026 21.8108 3.30412 21.8123C5.08381 23.3593 7.5762 24.5949 10.5115 25.3147L10.5126 25.3125L12.0251 22.3125C12.2738 21.8194 12.8751 21.6211 13.3682 21.8698C13.8614 22.1184 14.0596 22.7197 13.811 23.2129L12.3027 26.2045C12.1049 26.6132 11.7721 26.9414 11.3603 27.1336C10.9468 27.3265 10.4794 27.3703 10.0374 27.2577C6.85548 26.4777 4.05411 25.1161 1.98664 23.3171L1.98146 23.3126C1.69299 23.0581 1.48353 22.7262 1.37785 22.3563C1.27219 21.9865 1.27471 21.5942 1.38509 21.2258C1.38507 21.2259 1.38512 21.2257 1.38509 21.2258L5.62099 7.08117C5.70552 6.78887 5.85686 6.52019 6.06312 6.29638C6.26718 6.07496 6.51939 5.90352 6.8002 5.79524C8.04806 5.28409 9.33838 4.88344 10.6563 4.59788C11.1387 4.49279 11.643 4.5687 12.0731 4.81121C12.5039 5.05409 12.8301 5.44708 12.9896 5.91518L12.9926 5.92385L13.98 8.91136C14.1534 9.43574 13.8688 10.0013 13.3444 10.1747C12.82 10.348 12.2544 10.0634 12.0811 9.53905L11.0962 6.55937C11.0951 6.55684 11.0932 6.55473 11.0908 6.55337Z" fill="#858584"/>
<path d="M12.2931 19.5C13.1215 19.5 13.7931 18.8284 13.7931 18C13.7931 17.1716 13.1215 16.5 12.2931 16.5C11.4647 16.5 10.7931 17.1716 10.7931 18C10.7931 18.8284 11.4647 19.5 12.2931 19.5Z" fill="#858584"/>
<path d="M20.2931 19.5C21.1215 19.5 21.7931 18.8284 21.7931 18C21.7931 17.1716 21.1215 16.5 20.2931 16.5C19.4647 16.5 18.7931 17.1716 18.7931 18C18.7931 18.8284 19.4647 19.5 20.2931 19.5Z" fill="#858584"/>
<path fill-rule="evenodd" clip-rule="evenodd" d="M16.2858 9.99959C14.118 9.98356 11.9609 10.3055 9.89223 10.9539C9.36522 11.119 8.8041 10.8257 8.63893 10.2987C8.47376 9.77168 8.76709 9.21056 9.2941 9.04539C11.5587 8.33563 13.92 7.98281 16.2932 7.99959C18.6663 7.98281 21.0276 8.33563 23.2922 9.04539C23.8192 9.21056 24.1126 9.77168 23.9474 10.2987C23.7822 10.8257 23.2211 11.119 22.6941 10.9539C20.6254 10.3055 18.4684 9.98356 16.3006 9.99959H16.2858Z" fill="#858584"/>
<path fill-rule="evenodd" clip-rule="evenodd" d="M8.63893 21.7009C8.8041 21.1739 9.36522 20.8806 9.89223 21.0458C11.9609 21.6941 14.118 22.016 16.2858 22H16.3006C18.4684 22.016 20.6254 21.6941 22.6941 21.0458C23.2211 20.8806 23.7822 21.1739 23.9474 21.7009C24.1126 22.2279 23.8192 22.7891 23.2922 22.9542C21.0276 23.664 18.6663 24.0168 16.2932 24C13.92 24.0168 11.5587 23.664 9.2941 22.9542C8.76709 22.7891 8.47376 22.2279 8.63893 21.7009Z" fill="#858584"/>
<path fill-rule="evenodd" clip-rule="evenodd" d="M20.513 4.81121C20.9435 4.56852 21.4482 4.49267 21.9309 4.59812C23.2485 4.88366 24.5384 5.28424 25.7859 5.79524C26.0667 5.90352 26.319 6.07496 26.523 6.29638C26.7293 6.52018 26.8806 6.78885 26.9651 7.08115L31.2009 21.2255C31.3114 21.594 31.314 21.9865 31.2083 22.3563C31.1026 22.7262 30.8931 23.0581 30.6047 23.3126L30.5995 23.3171C28.532 25.1161 25.7307 26.4777 22.5487 27.2577C22.1067 27.3703 21.6393 27.3265 21.2258 27.1336C20.814 26.9414 20.4813 26.6132 20.2834 26.2044L18.7751 23.2129C18.5265 22.7197 18.7247 22.1184 19.2179 21.8698C19.711 21.6211 20.3124 21.8194 20.561 22.3125L22.0735 25.3125L22.0746 25.3147C25.0125 24.5943 27.5066 23.3571 29.2866 21.8083L29.9431 22.5627L29.2815 21.8128C29.2833 21.8113 29.2846 21.8092 29.2852 21.8069C29.2859 21.8046 29.2859 21.8022 29.2852 21.7999L25.0491 7.65465C25.0456 7.65325 25.042 7.65182 25.0385 7.65037C23.8956 7.18149 22.7136 6.81412 21.5063 6.55253L21.5041 6.55205C21.5011 6.55139 21.498 6.55186 21.4953 6.55337C21.4929 6.55473 21.491 6.55684 21.49 6.55937L20.505 9.53905C20.3317 10.0634 19.7661 10.348 19.2417 10.1747C18.7173 10.0013 18.4328 9.43574 18.6061 8.91136L19.5965 5.91516C19.756 5.44707 20.0823 5.0541 20.513 4.81121Z" fill="#858584"/>
<path fill-rule="evenodd" clip-rule="evenodd" d="M11.0908 6.55337C11.0881 6.55186 11.085 6.55139 11.082 6.55205L11.0798 6.55252C9.87249 6.81412 8.69052 7.18148 7.54762 7.65037C7.54409 7.65182 7.54055 7.65324 7.53701 7.65465L3.30103 21.7996C3.30034 21.8019 3.30024 21.8046 3.3009 21.8069C3.30149 21.809 3.3026 21.8108 3.30412 21.8123C5.08381 23.3593 7.5762 24.5949 10.5115 25.3147L10.5126 25.3125L12.0251 22.3125C12.2738 21.8194 12.8751 21.6211 13.3682 21.8698C13.8614 22.1184 14.0596 22.7197 13.811 23.2129L12.3027 26.2045C12.1049 26.6132 11.7721 26.9414 11.3603 27.1336C10.9468 27.3265 10.4794 27.3703 10.0374 27.2577C6.85548 26.4777 4.05411 25.1161 1.98664 23.3171L1.98146 23.3126C1.69299 23.0581 1.48353 22.7262 1.37785 22.3563C1.27219 21.9865 1.27471 21.5942 1.38509 21.2258C1.38507 21.2259 1.38512 21.2257 1.38509 21.2258L5.62099 7.08117C5.70552 6.78887 5.85686 6.52019 6.06312 6.29638C6.26718 6.07496 6.51939 5.90352 6.8002 5.79524C8.04806 5.28409 9.33838 4.88344 10.6563 4.59788C11.1387 4.49279 11.643 4.5687 12.0731 4.81121C12.5039 5.05409 12.8301 5.44708 12.9896 5.91518L12.9926 5.92385L13.98 8.91136C14.1534 9.43574 13.8688 10.0013 13.3444 10.1747C12.82 10.348 12.2544 10.0634 12.0811 9.53905L11.0962 6.55937C11.0951 6.55684 11.0932 6.55473 11.0908 6.55337Z" fill="#858584"/>
<path fill-rule="evenodd" clip-rule="evenodd" d="M55.8212 11.1183C56.1464 10.9443 56.5409 10.9634 56.8478 11.168L62.8478 15.168C63.126 15.3534 63.2931 15.6656 63.2931 16C63.2931 16.3344 63.126 16.6466 62.8478 16.8321L56.8478 20.8321C56.5409 21.0366 56.1464 21.0557 55.8212 20.8817C55.4961 20.7077 55.2931 20.3688 55.2931 20V12C55.2931 11.6312 55.4961 11.2923 55.8212 11.1183ZM57.2931 13.8685V18.1315L60.4903 16L57.2931 13.8685Z" fill="#858584"/>
<path fill-rule="evenodd" clip-rule="evenodd" d="M58.2916 5.04988L58.2747 5.04984L58.2119 5.04986C58.1574 5.04999 58.0781 5.05038 57.9762 5.05146C57.7725 5.05362 57.4787 5.05853 57.1137 5.06948C56.3843 5.09138 55.3677 5.13752 54.2168 5.23469C51.9404 5.42688 49.0424 5.82574 46.8112 6.67826L46.7965 6.68401C46.3582 6.85944 45.9673 7.13542 45.6553 7.48969C45.3433 7.84396 45.1189 8.2666 45.0002 8.72353L44.9992 8.72729C44.6878 9.94585 44.2931 12.2055 44.2931 15.9999C44.2931 19.7943 44.6878 22.0539 44.9992 23.2725L45.0002 23.2763C45.1189 23.7332 45.3433 24.1558 45.6553 24.5101C45.9673 24.8644 46.3582 25.1403 46.7965 25.3158L46.8112 25.3215C49.0424 26.174 51.9404 26.5729 54.2168 26.7651C55.3677 26.8623 56.3843 26.9084 57.1137 26.9303C57.4787 26.9413 57.7725 26.9462 57.9762 26.9483C58.0781 26.9494 58.1574 26.9498 58.2119 26.9499L58.2747 26.95L58.2916 26.9499H58.2946L58.3115 26.95L58.3743 26.9499C58.4288 26.9498 58.5081 26.9494 58.61 26.9483C58.8137 26.9462 59.1075 26.9413 59.4725 26.9303C60.2019 26.9084 61.2185 26.8623 62.3694 26.7651C64.6458 26.5729 67.5438 26.174 69.775 25.3215L69.7897 25.3158C70.228 25.1403 70.6189 24.8644 70.9309 24.5101C71.2429 24.1558 71.4673 23.7332 71.586 23.2763L71.587 23.2725C71.8984 22.0539 72.2931 19.7943 72.2931 15.9999C72.2931 12.2055 71.8984 9.94585 71.587 8.72729L71.586 8.72353C71.4673 8.2666 71.2429 7.84396 70.9309 7.48969C70.6189 7.13542 70.228 6.85944 69.7897 6.68401L69.775 6.67826C67.5438 5.82574 64.6458 5.42688 62.3694 5.23469C61.2185 5.13752 60.2019 5.09138 59.4725 5.06948C59.1075 5.05853 58.8137 5.05362 58.61 5.05146C58.5081 5.05038 58.4288 5.04999 58.3743 5.04986L58.3115 5.04984L58.2946 5.04988H58.2916ZM58.2878 24.9499L58.2985 24.9499L58.3017 24.9499L58.3148 24.95L58.3698 24.9499C58.419 24.9498 58.4927 24.9495 58.5888 24.9484C58.7808 24.9464 59.0617 24.9417 59.4125 24.9312C60.1147 24.9101 61.0942 24.8656 62.2011 24.7722C64.4372 24.5834 67.0972 24.2018 69.0527 23.4565C69.1975 23.3974 69.3266 23.3056 69.43 23.1882C69.5345 23.0696 69.6098 22.9281 69.6498 22.7751C69.9134 21.7429 70.2931 19.6529 70.2931 15.9999C70.2931 12.3468 69.9134 10.2569 69.6498 9.22467C69.6098 9.07171 69.5345 8.93023 69.43 8.81157C69.3266 8.69418 69.1975 8.60236 69.0527 8.54329C67.0972 7.79794 64.4372 7.41638 62.2011 7.2276C61.0942 7.13414 60.1147 7.08966 59.4125 7.06858C59.0617 7.05805 58.7808 7.05339 58.5888 7.05135C58.4927 7.05033 58.419 7.04997 58.3698 7.04986L58.3148 7.04983L58.3017 7.04987L58.2988 7.04988L58.2877 7.04994L58.2845 7.04987L58.2714 7.04983L58.2164 7.04986C58.1672 7.04997 58.0934 7.05033 57.9974 7.05135C57.8054 7.05339 57.5245 7.05805 57.1737 7.06858C56.4715 7.08966 55.492 7.13414 54.385 7.2276C52.149 7.41638 49.489 7.79794 47.5335 8.5433C47.3887 8.60237 47.2595 8.69418 47.1562 8.81157C47.0516 8.93023 46.9764 9.07171 46.9364 9.22467C46.6728 10.2569 46.2931 12.3468 46.2931 15.9999C46.2931 19.6529 46.6728 21.7429 46.9364 22.7751C46.9764 22.9281 47.0516 23.0696 47.1562 23.1882C47.2595 23.3056 47.3887 23.3974 47.5335 23.4565C49.489 24.2018 52.149 24.5834 54.385 24.7722C55.492 24.8656 56.4715 24.9101 57.1737 24.9312C57.5245 24.9417 57.8054 24.9464 57.9974 24.9484C58.0934 24.9495 58.1672 24.9498 58.2164 24.9499L58.2714 24.95L58.2845 24.9499L58.2878 24.9499Z" fill="#858584"/>
<path d="M100.293 11.0005C100.293 8.25045 102.606 5.96295 105.356 6.00045C106.319 6.01157 107.258 6.3006 108.061 6.8328C108.863 7.365 109.495 8.11771 109.881 9.00045H114.293L110.256 13.038C109.995 17.0937 108.2 20.8979 105.235 23.6773C102.269 26.4566 98.3571 28.0025 94.293 28.0005C90.293 28.0005 89.293 26.5005 89.293 26.5005C89.293 26.5005 93.293 25.0005 95.293 22.0005C95.293 22.0005 87.293 18.0005 89.293 7.00045C89.293 7.00045 94.293 12.0005 100.293 13.0005V11.0005Z" stroke="#858584" stroke-width="2" stroke-linecap="round" stroke-linejoin="round"/>
<path fill-rule="evenodd" clip-rule="evenodd" d="M142.293 12C140.084 12 138.293 13.7909 138.293 16C138.293 18.2091 140.084 20 142.293 20C144.502 20 146.293 18.2091 146.293 16C146.293 13.7909 144.502 12 142.293 12ZM136.293 16C136.293 12.6863 138.979 10 142.293 10C145.607 10 148.293 12.6863 148.293 16C148.293 19.3137 145.607 22 142.293 22C138.979 22 136.293 19.3137 136.293 16Z" fill="#858584"/>
<path fill-rule="evenodd" clip-rule="evenodd" d="M136.793 5.5C134.032 5.5 131.793 7.73858 131.793 10.5V21.5C131.793 24.2614 134.032 26.5 136.793 26.5H147.793C150.555 26.5 152.793 24.2614 152.793 21.5V10.5C152.793 7.73858 150.555 5.5 147.793 5.5H136.793ZM129.793 10.5C129.793 6.63401 132.927 3.5 136.793 3.5H147.793C151.659 3.5 154.793 6.63401 154.793 10.5V21.5C154.793 25.366 151.659 28.5 147.793 28.5H136.793C132.927 28.5 129.793 25.366 129.793 21.5V10.5Z" fill="#858584"/>
<path d="M148.793 11C149.622 11 150.293 10.3284 150.293 9.5C150.293 8.67157 149.622 8 148.793 8C147.965 8 147.293 8.67157 147.293 9.5C147.293 10.3284 147.965 11 148.793 11Z" fill="#858584"/>
</svg>
